<?xml version="1.0" encoding="utf-8" ?>
<svg baseProfile="full" height="200mm" version="1.1" viewBox="0,0,200,200" width="200mm" xmlns="http://www.w3.org/2000/svg" xmlns:ev="http://www.w3.org/2001/xml-events" xmlns:xlink="http://www.w3.org/1999/xlink"><defs /><rect fill="#1a1a1a" height="200" width="200" x="0" y="0" /><text alignment-baseline="middle" fill="#e1ed5e" style="dominant-baseline: central; font-size:9.0px; font-family:Arial;" text-anchor="middle" x="100.0" y="100.0">2022</text><line stroke="#e1ed5e" stroke-width="0.3" x1="100.0" x2="100.0" y1="15.0" y2="10.0" /><path d="M 100.0 14.0 a86.0,86.0 0 0,1 42.46469731375804,11.215312516191453" fill="none" id="id49" stroke="none" /><text fill="#e1ed5e" style="font-size:6.75px; font-family:Arial;" text-anchor="middle"><textPath startOffset="22.20632615414155" xlink:href="#id49">January</textPath></text><line stroke="#e1ed5e" stroke-width="0.3" x1="143.23703022742887" x2="145.7803849466894" y1="26.81831364943548" y2="22.513508569990506" /><path d="M 143.74570117128098 25.957352633546492 a86.0,86.0 0 0,1 28.547481713284135,27.462654790039103" fill="none" id="id50" stroke="none" /><text fill="#e1ed5e" style="font-size:6.75px; font-family:Arial;" text-anchor="middle"><textPath startOffset="19.985693538727396" xlink:href="#id50">February</textPath></text><line stroke="#e1ed5e" stroke-width="0.3" x1="172.23445277983987" x2="176.4835382374775" y1="55.19839476539836" y2="52.563006222186495" /><path d="M 173.08426987136738 54.67131705675599 a86.0,86.0 0 0,1 12.851231095245387,41.99856678651699" fill="none" id="id51" stroke="none" /><text fill="#e1ed5e" style="font-size:6.75px; font-family:Arial;" text-anchor="middle"><textPath startOffset="22.20632615414155" xlink:href="#id51">March</textPath></text><path d="M 119.61058180528143 92.48833698450437 l 51.50076504039281 -19.726920693370904 a76.14961649720051,76.14961649720051 0 0,0 0.45833152917176595,1.2281006300805333 l -51.83270115806619 18.83749692626104" fill="#42ffd4" stroke="none" /><path d="M 120.37134235888165 94.90015583598534 l 45.97459065604212 -11.5094648020559 a68.3933620459701,68.3933620459701 0 0,0 0.27607208482784945,1.1444970228294735 l -46.16589554113079 10.71638254756702" fill="#36ff72" stroke="none" /><path d="M 120.87857604477298 97.74499172005257 l 62.63572813431897 -6.7650248398422885 a84.0,84.0 0 0,0 0.1428914972710853,1.43889787718226 l -62.74289675727228 5.6858514319555935" fill="#4dd2ff" stroke="none" /><line stroke="#e1ed5e" stroke-width="0.3" x1="184.98032266829074" x2="189.97916517819016" y1="98.17113171792111" y2="98.06355123074" /><path d="M 185.9800911702706 98.14961562048488 a86.0,86.0 0 0,1 -9.607161424134198,41.387399972396054" fill="none" id="id52" stroke="none" /><text fill="#e1ed5e" style="font-size:6.75px; font-family:Arial;" text-anchor="middle"><textPath startOffset="21.466115282336823" xlink:href="#id52">April</textPath></text><path d="M 120.9904718944345 100.63252640178507 l 37.76768044895926 1.1380904220872992 a58.78482415340247,58.78482415340247 0 0,0 -0.039183912326890925,1.0111626673566467 l -37.742494403781166 -1.7880303364579522" fill="#67ff28" stroke="none" /><line stroke="#e1ed5e" stroke-width="0.3" x1="174.80103733775053" x2="179.2010983576182" y1="140.37084112569926" y2="142.7455964860345" /><path d="M 175.68104954172406 140.8457921977663 a86.0,86.0 0 0,1 -30.038265399797805,32.042727171017184" fill="none" id="id53" stroke="none" /><text fill="#e1ed5e" style="font-size:6.75px; font-family:Arial;" text-anchor="middle"><textPath startOffset="22.206326154141568" xlink:href="#id53">May</textPath></text><line stroke="#e1ed5e" stroke-width="0.3" x1="143.8653032363475" x2="146.44561519142675" y1="172.8068346515853" y2="177.08958963109032" /><path d="M 144.38136562736335 173.6633856474863 a86.0,86.0 0 0,1 -40.68145358897372,12.25698825130547" fill="none" id="id54" stroke="none" /><text fill="#e1ed5e" style="font-size:6.75px; font-family:Arial;" text-anchor="middle"><textPath startOffset="21.466115282336833" xlink:href="#id54">June</textPath></text><path d="M 109.2508944713604 118.85261126421891 l 11.126990551272057 22.675950747595184 a46.25883332688706,46.25883332688706 0 0,0 -0.7178651321105305,0.3446188880052909 l -10.735012751161292 -22.864123912100037" fill="#fff116" stroke="none" /><path d="M 108.92500713936063 119.00905698771935 l 12.36179112255548 26.32894161872617 a50.08654408003781,50.08654408003781 0 0,0 -0.7835729862713483,0.3596999261691441 l -11.906750140516712 -26.53782861522939" fill="#d8ff1c" stroke="none" /><path d="M 106.2309692047433 120.05430185196036 l 7.986234591421648 25.703603066280117 a47.9157045892933,47.9157045892933 0 0,0 -0.7897535464610844,0.23794626510159728 l -7.542606070520318 -25.837264700487438" fill="#f6ff19" stroke="none" /><path d="M 105.18746579009965 120.34920634021253 l 10.95441682571152 42.971596795593975 a65.34588345218228,65.34588345218228 0 0,0 -1.0923551305448354,0.26847431421963525 l -10.213108410423475 -43.15379236812764" fill="#32ff48" stroke="none" /><path d="M 104.13013068566511 120.58985236759428 l 4.0353643836435795 20.117415944500348 a41.518152694451224,41.518152694451224 0 0,0 -0.7019185137946303,0.13452435374888372 l -3.688478255277245 -20.1838974965977" fill="#ffab0f" stroke="none" /><path d="M 103.41894727170886 120.7198165907248 l 7.4221894009535125 44.98063025479557 a66.58888015319368,66.58888015319368 0 0,0 -1.1325314225329226,0.1768781165145647 l -6.646822114812072 -45.10172667865724" fill="#34ff59" stroke="none" /><path d="M 101.98527174616119 120.90594882070398 l 2.665995445452677 28.074325062367684 a49.20062516013893,49.20062516013893 0 0,0 -0.8438040343853573,0.07280696262897728 l -2.182347093325778 -28.116056277275327" fill="#e4ff1a" stroke="none" /><path d="M 101.26447882468166 120.96189622390904 l 1.7302213963367576 28.68274315588391 a49.73488160801688,49.73488160801688 0 0,0 -0.8549945560255753,0.044193452450695524 l -1.2362387718977028 -28.708276415096805" fill="#dcff1b" stroke="none" /><line stroke="#e1ed5e" stroke-width="0.3" x1="102.19456741930631" x2="102.32365962044197" y1="184.97166512339345" y2="189.96999836594603" /><path d="M 102.22038585953345 185.97133177190398 a86.0,86.0 0 0,1 -42.740103519485714,-10.115201625700543" fill="none" id="id55" stroke="none" /><text fill="#e1ed5e" style="font-size:6.75px; font-family:Arial;" text-anchor="middle"><textPath startOffset="22.20632615414155" xlink:href="#id55">July</textPath></text><path d="M 99.45781275523022 120.99299961872073 l -0.2566669899149345 9.937913651418198 a30.941227574437484,30.941227574437484 0 0,0 -0.5323064674689338,-0.018333711031087184 l 0.42769380905851145 -9.932023141961018" fill="#ff0000" stroke="none" /><path d="M 98.37488393609728 120.93702456842531 l -2.115882325735264 27.259763915833155 a48.34175719962633,48.34175719962633 0 0,0 -0.8290742164668647,-0.07153601195912832 l 2.5848008599436705 -27.219303651595364" fill="#f0ff19" stroke="none" /><path d="M 96.58105272829116 120.7198165907248 l -4.430510410161075 26.85018393277284 a48.21326514254176,48.21326514254176 0 0,0 -0.8176763794860481,-0.14216351960808615 l 4.892035761119173 -26.769941834643745" fill="#f1ff19" stroke="none" /><path d="M 95.86986931433489 120.58985236759428 l -5.720534678329272 28.518459451976266 a50.086544080037804,50.086544080037804 0 0,0 -0.8438593791909893,-0.17683893760053654 l 6.210585518949648 -28.415764533649188" fill="#d8ff1c" stroke="none" /><path d="M 91.7346041902142 119.30500536409082 l -11.09683011001724 25.918222155151597 a49.193862420292405,49.193862420292405 0 0,0 -0.7755747990995335,-0.3399891998828761 l 11.541325583774517 -25.723368401974266" fill="#e4ff1a" stroke="none" /><path d="M 91.07499286063937 119.00905698771935 l -12.292811120941602 26.182023553427545 a49.92423832372047,49.92423832372047 0 0,0 -0.7747465156874921,-0.37192540879822494 l 12.741670304629336 -25.966543868129758" fill="#daff1c" stroke="none" /><line stroke="#e1ed5e" stroke-width="0.3" x1="58.666819895761336" x2="56.23545636021788" y1="174.27360380694188" y2="178.64263932499728" /><path d="M 58.180547188652646 175.14741091055294 a86.0,86.0 0 0,1 -31.652253787137756,-30.449443065178592" fill="none" id="id56" stroke="none" /><text fill="#e1ed5e" style="font-size:6.75px; font-family:Arial;" text-anchor="middle"><textPath startOffset="22.20632615414155" xlink:href="#id56">August</textPath></text><path d="M 89.7882731507175 118.34994917583269 l -12.993004995806407 23.347763295405812 a47.71958513374317,47.71958513374317 0 0,0 -0.7143195442285997,-0.4056092798079355 l 13.392973306956215 -23.120650849803244" fill="#f8ff18" stroke="none" /><path d="M 89.1626897886671 117.98757091392108 l -14.748721807204912 24.479660932780803 a49.579338591546104,49.579338591546104 0 0,0 -0.7272127399902377,-0.44671346040673326 l 15.167913747127459 -24.22215900554569" fill="#deff1b" stroke="none" /><path d="M 87.07902340077011 116.55440617244103 l -17.442952583357037 22.34797963558982 a49.349405436763206,49.349405436763206 0 0,0 -0.6651418784632904,-0.5284289355589937 l 17.825051954537685 -22.044416786025693" fill="#e2ff1b" stroke="none" /><path d="M 86.24171649860922 115.8653595955263 l -24.492929484612183 28.244012691115113 a58.38486120923891,58.38486120923891 0 0,0 -0.7536030050119875,-0.66496703200413 l 24.97547484253076 -27.818222517338693" fill="#6cff28" stroke="none" /><path d="M 83.95833913139862 113.55231037782056 l -20.4572806417943 17.282712744939634 a47.78044979236216,47.78044979236216 0 0,0 -0.5253665230448796,-0.6328378209422221 l 20.751743164732716 -16.92801366688365" fill="#f8ff18" stroke="none" /><path d="M 82.44556493220864 111.52570212397912 l -24.031525977316104 15.77836079199216 a49.74840708770999,49.74840708770999 0 0,0 -0.46383315059583463,-0.7198793501080855 l 24.299563991288984 -15.362359841962625" fill="#dcff1b" stroke="none" /><path d="M 82.05923443525364 110.91462005526583 l -23.196897695341132 14.112292136687277 a48.15240048392275,48.15240048392275 0 0,0 -0.4247021643171527,-0.7118252562183994 l 23.436380735356515 -13.710904786582766" fill="#f2ff19" stroke="none" /><line stroke="#e1ed5e" stroke-width="0.3" x1="26.63291911575756" x2="22.317208475507996" y1="142.92168965132927" y2="145.44649492493687" /><path d="M 25.769776987707644 143.4266507060508 a86.0,86.0 0 0,1 -11.730757126820373,-40.83630448921669" fill="none" id="id57" stroke="none" /><text fill="#e1ed5e" style="font-size:6.75px; font-family:Arial;" text-anchor="middle"><textPath startOffset="21.46611528233685" xlink:href="#id57">September</textPath></text><path d="M 81.87401531095188 110.60418214915194 l -19.75894116791576 11.559505031776501 a43.8918743805924,43.8918743805924 0 0,0 -0.3758983805942932,-0.655410511134952 l 19.954991544662434 -11.217674674783243" fill="#ffce13" stroke="none" /><path d="M 80.87730276802145 108.67885076344099 l -26.83735809905653 12.180155498003309 a50.47202025129148,50.47202025129148 0 0,0 -0.3522440256881026,-0.7942172882196958 l 27.04304320947591 -11.716389873290916" fill="#d2ff1c" stroke="none" /><path d="M 79.97269907076064 106.31721596034903 l -26.23655166768769 8.275801293706008 a48.510825695790224,48.510825695790224 0 0,0 -0.24434031439220363,-0.7985182848697009 l 26.375118754586023 -7.822956036284259" fill="#edff19" stroke="none" /><path d="M 79.35854240842038 103.8639653848113 l -28.250925377080357 5.28841518393817 a49.74164434786344,49.74164434786344 0 0,0 -0.15029925227479624,-0.842958025290563 l 28.33777107169434 -4.801338407914393" fill="#dcff1b" stroke="none" /><path d="M 79.10278846688536 102.07522291339032 l -28.90379666557678 2.870326551910031 a50.04596764095848,50.04596764095848 0 0,0 -0.07775094757098543,-0.8579752275638696 l 28.94892220942484 -2.3723699357975954" fill="#d8ff1c" stroke="none" /><path d="M 79.0235259727143 100.99374915477108 l -29.61053943048053 1.4027833511523335 a50.643748860329936,50.643748860329936 0 0,0 -0.033757355641145056,-0.8711273516600068 l 29.630298918972873 -0.8928787524783299" fill="#d0ff1d" stroke="none" /><line stroke="#e1ed5e" stroke-width="0.3" x1="15.007084014347285" x2="10.007500721073583" y1="101.09737516637583" y2="101.16192664675087" /><path d="M 14.007167355692545 101.11028546245083 a86.0,86.0 0 0,1 10.666146001902534,-42.60595125391555" fill="none" id="id58" stroke="none" /><text fill="#e1ed5e" style="font-size:6.75px; font-family:Arial;" text-anchor="middle"><textPath startOffset="22.20632615414155" xlink:href="#id58">October</textPath></text><path d="M 79.21141760316559 97.0276538004421 l -29.21547847820558 -4.177221648176618 a50.512596690370856,50.512596690370856 0 0,0 0.13047669893000127,-0.859678423453277 l 29.139245885836274 4.679499184021986" fill="#d2ff1c" stroke="none" /><path d="M 79.46518482838121 95.60439243477599 l -28.62077810525685 -6.126459269813198 a50.269138055894814,50.269138055894814 0 0,0 0.18840301550325725,-0.8445737763822196 l 28.511080702751556 6.618211215745377" fill="#d5ff1c" stroke="none" /><path d="M 80.14247586403 93.16781622104843 l -27.52971029429616 -9.471877703586562 a50.11359503942404,50.11359503942404 0 0,0 0.28766854721654184,-0.8132777208443487 l 27.362588666269808 9.944353050857522" fill="#d7ff1c" stroke="none" /><path d="M 80.38941819471856 92.48833698450439 l -34.71562267209961 -13.297517711365494 a58.17523953918354,58.17523953918354 0 0,0 0.36624485258370193,-0.9320532015897921 l 34.48158426963422 13.893119917851049" fill="#6fff28" stroke="none" /><path d="M 80.65960295795068 91.81776055985345 l -26.326978553970896 -11.13801551208317 a49.586101331392655,49.586101331392655 0 0,0 0.3393325440001591,-0.7832262965827863 l 26.131355300128057 11.589540953252556" fill="#deff1b" stroke="none" /><line stroke="#e1ed5e" stroke-width="0.3" x1="26.266209847984243" x2="21.928928074336255" y1="57.711370442889674" y2="55.22380399835377" /><path d="M 25.398753493254645 57.213857153982495 a86.0,86.0 0 0,1 29.58750427330803,-30.492523968695096" fill="none" id="id59" stroke="none" /><text fill="#e1ed5e" style="font-size:6.75px; font-family:Arial;" text-anchor="middle"><textPath startOffset="21.46611528233685" xlink:href="#id59">November</textPath></text><path d="M 81.78341655067845 89.55222093294921 l -25.59502316197859 -14.67954449067448 a50.50583395052429,50.50583395052429 0 0,0 0.43901673192744844,-0.7504219042285405 l 25.33854675558082 15.117945807256913" fill="#d2ff1c" stroke="none" /><path d="M 82.54541684631803 88.32363383020206 l -18.41658866717805 -12.319906524445438 a43.15741038359637,43.15741038359637 0 0,0 0.41837108948543256,-0.6139079495389425 l 18.20179311202388 12.635092497254796" fill="#ffc312" stroke="none" /><path d="M 83.39014120810768 87.1503855733568 l -21.684682661946304 -16.775567731264275 a48.416147337938455,48.416147337938455 0 0,0 0.5156225612138575,-0.6547882904506868 l 21.392706020138476 17.146348415668008" fill="#efff19" stroke="none" /><line stroke="#e1ed5e" stroke-width="0.3" x1="56.762969772571076" x2="54.21961505331055" y1="26.818313649435495" y2="22.513508569990535" /><path d="M 56.25429882871897 25.957352633546506 a86.0,86.0 0 0,1 42.265352541879196,-11.944610805530505" fill="none" id="id60" stroke="none" /><text fill="#e1ed5e" style="font-size:6.75px; font-family:Arial;" text-anchor="middle"><textPath startOffset="22.20632615414155" xlink:href="#id60">December</textPath></text></svg>